<svg id="Layer_1" enable-background="new 0 0 480.09 480.09" height="512" viewBox="0 0 480.09 480.09" width="512" xmlns="http://www.w3.org/2000/svg"><path d="m357.684 367.683h-.01c-45.577-15.805-44.69-15.199-49.56-17.61 0-.268-5.764-2.311-12.77-8.87l.01-.01c-10.77-10.05-17.21-24.3-17.2-39.61 35.82-14.87 61.03-50.19 61.06-91.4v-3.13c13.906 0 25.005-11.353 25.025-24.98v-94.46c.02-43.93-35.54-79.59-79.47-79.62h-67.665c-30.91 0-58.87 17.88-71.94 45.58-1.14 2.44-3.35 4.26-6.01 4.67-12.96 1.97-22.92 13.16-22.92 26.67v97.46c-.01 13.195 10.61 24.56 24.98 24.56v3.25c.02 41.16 25.17 76.45 60.94 91.35 0 20.706-11.82 39.369-29.92 48.38-4.228 2.134-2.209 1.276-49.72 17.62-.038 0-.415.145-.45.16-21.55 7.66-36.006 28.06-36.016 50.98v45.22c-.01 4.42 3.556 8.1 7.976 8.1h292c4.42 0 8.013-3.479 8.023-7.899v-45.231c.011-23.903-15.652-44.276-36.363-51.18z" fill="#ffebd2"/><path d="m357.684 367.683h-.01c-45.577-15.805-44.69-15.199-49.56-17.61 0-.264-5.774-2.321-12.78-8.88l-40.72 38.17h-29.05l-40.67-38.24c-3.73 3.48-7.98 6.46-12.66 8.79-4.228 2.134-2.209 1.276-49.72 17.62-.038 0-.415.145-.45.16-21.55 7.66-36.006 28.06-36.016 50.98v45.22c-.003 4.419 3.557 8.098 7.976 8.1h292c4.418.002 8.02-3.481 8.023-7.899v-45.231c.011-23.903-15.652-44.276-36.363-51.18z" fill="#cbe3fa"/><path d="m284.769 7.993c43.93.03 79.49 35.69 79.47 79.62v94.46c-.01 13.8-11.215 24.99-25.025 24.98v-61.77c.02-26.51-21.44-48.045-47.95-48.055h-102c-26.51-.01-48.03 21.425-48.05 47.935v61.77c-14.251 0-24.99-11.263-24.98-24.56v-97.46c.009-13.512 9.979-24.7 22.939-26.672 2.661-.405 4.863-2.233 6.011-4.667 13.064-27.702 41.024-45.581 71.941-45.581h67.644z" fill="#585966"/><path d="m198.347 353.772c4.172 3.922 2.986 10.813-2.241 13.151-6.234 2.789-45.146 15.529-48.043 16.77-21.55 7.66-35.998 28.06-36.008 50.98v29.23c-.002 4.418-3.594 7.998-8.012 7.996l-10.019.094c-4.42 0-7.986-3.68-7.976-8.1v-45.22c.01-22.92 14.466-43.32 36.016-50.98.035-.015.412-.16.45-.16 47.75-16.426 45.513-15.497 49.72-17.62 4.68-2.33 8.93-5.31 12.66-8.79z" fill="#eef7ff"/><path d="m254.614 379.363 18.64 57.87-33.08 8.76-33.32-8.83 18.71-57.8z" fill="#ff6d7a"/><path d="m242.178 389.822-14.571 45.011c-1.309 4.044-5.551 6.358-9.66 5.269l-11.094-2.939 18.71-57.8h9.007c5.431.003 9.28 5.293 7.608 10.459z" fill="#ff8c95"/><path d="m289.358 8.157c15.375.885 14.652 23.878-.747 24.02-10.021.092-22.198-.04-37.437-.193-31.422-.317-59.116 18.29-71.991 45.591-1.148 2.434-3.35 4.263-6.011 4.667-12.959 1.972-22.894 13.16-22.904 26.672v8.26c-5.68 7.87-9.05 17.54-9.055 27.99-.032 66.569.122 61.77-.22 61.77-13.7-.005-24.77-11.01-24.76-24.56v-97.46c.009-13.512 9.979-24.7 22.939-26.672 2.661-.405 4.863-2.233 6.011-4.667 13.064-27.702 41.024-45.581 71.941-45.581 0-.001 70.717.075 72.234.163z" fill="#6e6f80"/><path d="m225.355 278.32c15.763 8.109 6.51 32.054-10.621 27.496-42.77-11.381-73.518-50.215-73.541-95.633 0 0 .051-66.177.072-66.751.697-19.196 29.548-18.462 29.63.746.049 11.416.299 26.181.298 46.005-.002 40.228 23.133 72.176 54.162 88.137z" fill="#fff3e4"/><path d="m273.759 319.306c-21.299 7.719-45.588 7.818-67.249-.052-3.592-1.305-5.746-5.014-5.12-8.784.74-4.459.648-7.601.744-8.937 24.503 10.22 52.069 10.011 76 .05 0 3.032.249 6.023.737 8.947.629 3.768-1.521 7.475-5.112 8.776z" fill="#ffdfba"/><path d="m268.704 366.162 26.63-24.969c5.571 5.215 12.219 9.18 19.26 11.6.63.22 4.04 1.4 8.69 3l-34.449 31.954c-14.399 13.357-34.292-8.307-20.131-21.585z" fill="#eef7ff"/><path d="m314.594 352.793c-2.24-.77-4.4-1.69-6.48-2.72v77.92l-67.94 18-67.94-18v-78.08c-2.12 1.07-4.34 2-6.63 2.79-12.013 4.197-42.66 14.613-43.54 14.99.165.45.11-7.667.11 104.225 321.518.23-86.29-.063 236 .155 0-109.086-.022-104.014.04-104.2 0 0-32.056-11.057-43.62-15.08z" fill="#585966"/><path d="m266.229 439.094 41.885-11.1v-77.92c3.438 1.703 4.756 2.15 14.598 5.531 3.231 1.11 5.402 4.15 5.402 7.566v68.666c0 3.629-2.437 6.802-5.945 7.732-14.823 3.928-52.231 13.839-52.148 13.817-3.947 1.045-7.994-1.307-9.039-5.254-1.047-3.947 1.3-7.993 5.247-9.038z" fill="#6e6f80"/><path d="m142.174 371.98v91.942c0 4.419-3.576 7.997-7.995 7.995h-12.005c0-108.871.061-103.758-.11-104.225.035-.015.412-.16.45-.16.363-.129 4.013-1.384 9.055-3.117 5.193-1.783 10.605 2.074 10.605 7.565z" fill="#6e6f80"/><g><path d="m215.203 196.978c4.416.001 8.004-3.579 8.007-7.995v-14c.003-4.418-3.575-8.004-7.993-8.005-4.416-.001-8.004 3.579-8.007 7.995v14c-.003 4.418 3.574 8.003 7.993 8.005z"/><path d="m265.203 197.009c4.416.001 8.004-3.579 8.007-7.995v-14c.003-4.418-3.575-8.004-7.993-8.005-4.416-.001-8.004 3.579-8.007 7.995v14c-.003 4.418 3.574 8.004 7.993 8.005z"/><path d="m360.312 360.127-43.102-14.892c-6.155-2.126-11.68-5.451-16.422-9.881-2.656-2.489-6.763-2.889-9.879-.816-.88.585 2.316-2.334-39.461 36.823h-22.714l-9.778-9.197c-3.219-3.026-8.283-2.869-11.309.351-3.026 3.219-2.869 8.282.351 11.308l8.393 7.888-14.815 45.78-21.337-5.653v-67.221c15.167-9.211 25.737-24.549 28.899-42.078 68.03 20.639 137.45-29.854 138.051-101.499.038-1.269.004-1.945.024-65.749.01-30.877-25.066-56.045-55.945-56.064h-102.036c-30.86 0-55.996 25.068-56.015 55.933v51.863c-5.342-2.775-8.98-8.294-8.977-14.642v-97.46c.007-10.346 8.424-18.988 19.031-18.988 3.347 0 6.247-2.04 7.443-5.024 10.939-27.3 37-44.909 66.405-44.909h67.654c39.447.025 71.49 32.159 71.466 71.607v94.459c-.003 4.418 3.549 8.004 7.968 8.005 4.416.001 8.029-3.579 8.032-7.995v-94.46c.031-48.269-39.185-87.586-87.455-87.616h-67.665c-34.296 0-64.878 19.581-79.257 50.345-16.656 2.57-29.61 17.023-29.621 34.565v97.46c-.01 15.311 10.67 28.185 25.05 31.641.911 25.232 10.631 49.249 27.656 68.003 2.969 3.272 8.029 3.517 11.3.547s3.516-8.029.546-11.301c-15.183-16.727-23.539-38.374-23.58-60.979v-65.111c.014-22.048 17.975-39.943 40.02-39.943h102.025c21.867.013 39.969 17.722 39.955 40.054v64.895c-.041 65.372-66.917 109.015-126.492 83.773-6.408-2.716-12.953 3.504-10.659 10.018-.994 18.677-13.22 35.035-31.057 41.172l-43.118 14.837c-25.006 8.65-41.826 32.222-41.843 58.69v53.227c-.003 4.418 3.562 8.004 7.981 8.005 4.416.001 8.016-3.579 8.019-7.995v-53.227c.01-15.477 7.77-29.618 20.129-38.066v91.385c0 4.418 3.582 8 8 8s8-3.582 8-8v-98.637l34.065-11.722v66.359c0 3.629 2.443 6.804 5.951 7.733l61.984 16.423v19.844c0 4.418 3.582 8 8 8s8-3.582 8-8v-19.845l61.984-16.423c3.508-.929 5.951-4.104 5.951-7.733v-32.161c0-4.418-3.582-8-8-8s-8 3.582-8 8v26.005l-59.935 15.88-23.109-6.123 14.317-44.233h17.4l5.732 17.793c1.355 4.205 5.861 6.515 10.068 5.161 4.205-1.355 6.516-5.863 5.161-10.068l-5.963-18.506 31.902-29.907c4.962 3.623 10.415 6.489 16.305 8.524l38.189 13.194v98.441c0 4.418 3.582 8 8 8s8-3.582 8-8v-91.109c12.246 8.478 19.881 22.57 19.871 37.974v53.227c-.003 4.418 3.563 8.004 7.981 8.005 4.416.001 8.016-3.579 8.019-7.995v-53.227c.015-26.467-16.741-50.059-41.734-58.742z"/></g></svg>