<svg width="35" height="35" viewBox="0 0 35 35" fill="none" xmlns="http://www.w3.org/2000/svg">
<path d="M31.875 14.375H21.25C20.9048 14.375 20.625 14.0952 20.625 13.75V3.125C20.625 1.39923 19.2258 0 17.5 0C15.7742 0 14.375 1.39923 14.375 3.125V13.75C14.375 14.0952 14.0952 14.375 13.75 14.375H3.125C1.39923 14.375 0 15.7742 0 17.5C0 19.2258 1.39923 20.625 3.125 20.625H13.75C14.0952 20.625 14.375 20.9048 14.375 21.25V31.875C14.375 33.6008 15.7742 35 17.5 35C19.2258 35 20.625 33.6008 20.625 31.875V21.25C20.625 20.9048 20.9048 20.625 21.25 20.625H31.875C33.6008 20.625 35 19.2258 35 17.5C35 15.7742 33.6008 14.375 31.875 14.375Z" fill="#5E92F3"/>
</svg>
